<?xml version="1.0" encoding="UTF-8"?>
<svg width="317px" height="106px" viewBox="0 0 317 106" version="1.1" xmlns="http://www.w3.org/2000/svg" xmlns:xlink="http://www.w3.org/1999/xlink">
    <!-- Generator: Sketch 57.1 (83088) - https://sketch.com -->
    <title>logo--horizontal--dark</title>
    <desc>Created with Sketch.</desc>
    <g id="logo--horizontal--dark" stroke="none" stroke-width="1" fill="none" fill-rule="evenodd">
        <g id="Turnz" fill-rule="nonzero">
            <polygon id="Path" fill="#FFFFFF" points="0 23.5488127 0 0 95 0 95 23.5488127 58.8067181 23.5488127 58.8067181 105 30.3070084 105 30.3070084 23.5488127"></polygon>
            <path d="M111,105 L111,28.9496631 L138.86954,28.9496631 L138.86954,40.7243054 L139.007168,40.7243054 C139.832936,39.431397 140.865131,38.0115279 142.103783,36.4646554 C143.342436,34.9177829 144.902197,33.4863701 146.783113,32.170374 C148.66403,30.854378 150.900452,29.7577311 153.492447,28.8804005 C154.522699,28.5316839 156.630801,27.96493 158.685646,28.0017046 C159.613418,28.0183084 161.051536,28.2685498 163,28.7524286 L163,52.3754005 C162.724744,52.3292252 162.117098,52.2680726 161.543648,52.2218973 C160.970197,52.175722 160.339412,52.1180038 159.651271,52.0487408 C158.963131,51.9794779 158.275001,51.9217596 157.586861,51.8755843 C156.898721,51.829409 156.302342,51.8063217 155.797705,51.8063217 C153.825037,51.8063217 152.001492,52.0256511 150.327018,52.4643164 C148.652543,52.9029818 147.11572,53.4686207 145.716501,54.1612502 C144.317283,54.8538796 143.055711,55.604217 141.931749,56.4122847 C140.807787,57.2203525 139.787061,57.9937771 138.86954,58.7325819 L138.86954,105 L111,105 Z" id="Path" fill="#FFFFFF"></path>
            <path d="M64,84.1570027 L64,29 L92.412523,29 L92.412523,75.7082962 C92.412523,78.3184787 92.8907257,80.3333262 93.8471455,81.7528992 C94.8035652,83.1724722 96.471443,83.882248 98.8508287,83.882248 C101.323524,83.882248 103.597902,83.3556401 105.674033,82.3024086 C107.750164,81.249177 109.721292,79.9898973 111.587477,78.5245317 L111.587477,29 L140,29 L140,104.420161 L111.587477,104.420161 L111.587477,92.8804639 C110.747694,94.2084515 109.616336,95.6280031 108.19337,97.1391615 C106.770404,98.6503198 105.009219,100.069871 102.909761,101.397859 C100.810303,102.725847 98.3726351,103.824854 95.5966851,104.694915 C92.820735,105.564976 89.6599318,106 86.1141805,106 C83.08163,106 80.2357407,105.622216 77.5764273,104.866637 C74.9171138,104.111058 72.5727542,102.874674 70.5432781,101.157449 C68.513802,99.4402233 66.9159052,97.1964159 65.7495396,94.425959 C64.583174,91.6555021 64,88.2325509 64,84.1570027 Z" id="Path" fill="#FFFFFF"></path>
            <path d="M168,105 L168,29.3774597 L196.368664,29.3774597 L196.368664,41.0858676 C197.209221,39.8002321 198.341621,38.38835 199.765899,36.8501789 C201.190176,35.3120078 202.952985,33.888647 205.054378,32.5800537 C207.155771,31.2714604 209.607359,30.1809823 212.409217,29.3085868 C215.211074,28.4361912 218.386465,28 221.935484,28 C224.924132,28 227.76097,28.3787976 230.446083,29.1364043 C233.131196,29.8940109 235.477717,31.1337123 237.485714,32.8555456 C239.493712,34.5773789 241.081407,36.8272073 242.248848,39.6050984 C243.416288,42.3829894 244,45.7921682 244,49.832737 L244,105 L215.631336,105 L215.631336,58.9928444 C215.631336,56.3756578 215.141019,54.3668824 214.160369,52.966458 C213.179719,51.5660335 211.498629,50.8658318 209.117051,50.8658318 C206.688774,50.8658318 204.423974,51.3823741 202.322581,52.4154741 C200.221188,53.448574 198.236568,54.6997541 196.368664,56.1690519 L196.368664,105 L168,105 Z" id="Path" fill="#FFFFFF"></path>
            <polygon id="Path" fill="#F46B00" points="249.061621 105 249.061621 90.9489982 280.637678 49.1420765 249 49.2673119 251.255326 29 314.008584 29 314.008584 43.6047359 282.299576 85.4116576 317 85.4116576 317 105"></polygon>
        </g>
    </g>
</svg>